<svg width="86" height="24" viewBox="0 0 86 24" fill="none" xmlns="http://www.w3.org/2000/svg">
<path d="M19.1446 1.83118L2.13107 5.13023C1.92684 5.16984 1.79334 5.36751 1.8329 5.57184L5.34716 23.6949C5.38677 23.8991 5.58444 24.0326 5.78877 23.993L18.0249 21.6203L22.174 15.4751L19.5862 2.1293C19.5465 1.92511 19.3488 1.79157 19.1446 1.83118Z" fill="#F6A7C5"/>
<path d="M18.0249 21.6203L22.174 15.475L17.3967 16.4014C17.1924 16.441 17.0589 16.6387 17.0985 16.843L18.0249 21.6203Z" fill="#F082A6"/>
<path d="M4.89911 4.59355L6.81545 8.28842L10.9597 7.53495L11.2578 3.3605L4.89911 4.59355Z" fill="#F082A6"/>
<path d="M11.5142 0.044578C11.3917 -0.0209531 11.2431 -0.0138281 11.1275 0.0632811L10.2062 0.677483L9.28489 0.0632811C9.15833 -0.0210937 8.99347 -0.0210937 8.86695 0.0632811L7.94567 0.677483L7.02439 0.0632811C6.77849 -0.10064 6.43869 0.0820311 6.43869 0.376734V7.91169C6.43869 8.11977 6.60739 8.28842 6.81542 8.28842H11.3364C11.5444 8.28842 11.7131 8.11972 11.7131 7.91169V0.376734C11.7131 0.237843 11.6367 0.110156 11.5142 0.044578Z" fill="#FCDE76"/>
<path d="M27.128 8.1H30.8C31.696 8.1 32.492 8.276 33.188 8.628C33.884 8.972 34.424 9.464 34.808 10.104C35.192 10.736 35.384 11.468 35.384 12.3C35.384 13.132 35.192 13.868 34.808 14.508C34.424 15.14 33.884 15.632 33.188 15.984C32.492 16.328 31.696 16.5 30.8 16.5H27.128V8.1ZM30.728 15.18C31.344 15.18 31.884 15.064 32.348 14.832C32.82 14.592 33.18 14.256 33.428 13.824C33.684 13.384 33.812 12.876 33.812 12.3C33.812 11.724 33.684 11.22 33.428 10.788C33.18 10.348 32.82 10.012 32.348 9.78C31.884 9.54 31.344 9.42 30.728 9.42H28.688V15.18H30.728ZM39.9461 15.312C40.6421 15.312 41.2221 15.08 41.6861 14.616L42.4781 15.54C42.1981 15.884 41.8381 16.144 41.3981 16.32C40.9581 16.496 40.4621 16.584 39.9101 16.584C39.2061 16.584 38.5861 16.444 38.0501 16.164C37.5141 15.884 37.0981 15.496 36.8021 15C36.5141 14.496 36.3701 13.928 36.3701 13.296C36.3701 12.672 36.5101 12.112 36.7901 11.616C37.0781 11.112 37.4701 10.72 37.9661 10.44C38.4701 10.16 39.0381 10.02 39.6701 10.02C40.2701 10.02 40.8141 10.152 41.3021 10.416C41.7981 10.672 42.1901 11.044 42.4781 11.532C42.7661 12.012 42.9101 12.576 42.9101 13.224L38.0021 14.184C38.1541 14.552 38.3981 14.832 38.7341 15.024C39.0701 15.216 39.4741 15.312 39.9461 15.312ZM39.6701 11.22C39.1181 11.22 38.6701 11.4 38.3261 11.76C37.9901 12.12 37.8221 12.604 37.8221 13.212V13.224L41.4461 12.528C41.3421 12.136 41.1301 11.82 40.8101 11.58C40.4981 11.34 40.1181 11.22 39.6701 11.22ZM50.234 10.092L47.486 16.5H45.938L43.19 10.092H44.75L46.742 14.844L48.794 10.092H50.234ZM55.4915 7.98C56.4995 7.98 57.2835 8.288 57.8435 8.904C58.4115 9.52 58.6955 10.4 58.6955 11.544V16.5H57.1355V11.604C57.1355 10.86 56.9555 10.3 56.5955 9.924C56.2435 9.54 55.7515 9.348 55.1195 9.348C54.4315 9.348 53.8835 9.552 53.4755 9.96C53.0755 10.36 52.8755 10.96 52.8755 11.76V16.5H51.3155V8.1H52.8275V9.156C53.4115 8.372 54.2995 7.98 55.4915 7.98ZM63.614 16.584C62.966 16.584 62.382 16.444 61.862 16.164C61.342 15.884 60.934 15.496 60.638 15C60.35 14.496 60.206 13.928 60.206 13.296C60.206 12.664 60.35 12.1 60.638 11.604C60.934 11.108 61.342 10.72 61.862 10.44C62.382 10.16 62.966 10.02 63.614 10.02C64.27 10.02 64.858 10.16 65.378 10.44C65.898 10.72 66.302 11.108 66.59 11.604C66.886 12.1 67.034 12.664 67.034 13.296C67.034 13.928 66.886 14.496 66.59 15C66.302 15.496 65.898 15.884 65.378 16.164C64.858 16.444 64.27 16.584 63.614 16.584ZM63.614 15.3C64.166 15.3 64.622 15.116 64.982 14.748C65.342 14.38 65.522 13.896 65.522 13.296C65.522 12.696 65.342 12.212 64.982 11.844C64.622 11.476 64.166 11.292 63.614 11.292C63.062 11.292 62.606 11.476 62.246 11.844C61.894 12.212 61.718 12.696 61.718 13.296C61.718 13.896 61.894 14.38 62.246 14.748C62.606 15.116 63.062 15.3 63.614 15.3ZM72.0684 16.152C71.8924 16.296 71.6764 16.404 71.4204 16.476C71.1724 16.548 70.9084 16.584 70.6284 16.584C69.9244 16.584 69.3804 16.4 68.9964 16.032C68.6124 15.664 68.4204 15.128 68.4204 14.424V8.676H69.9204V10.14H71.6364V11.34H69.9204V14.388C69.9204 14.7 69.9964 14.94 70.1484 15.108C70.3084 15.268 70.5284 15.348 70.8084 15.348C71.1444 15.348 71.4244 15.26 71.6484 15.084L72.0684 16.152ZM76.1453 15.312C76.8413 15.312 77.4213 15.08 77.8853 14.616L78.6773 15.54C78.3973 15.884 78.0373 16.144 77.5973 16.32C77.1573 16.496 76.6613 16.584 76.1093 16.584C75.4053 16.584 74.7853 16.444 74.2493 16.164C73.7133 15.884 73.2973 15.496 73.0013 15C72.7133 14.496 72.5693 13.928 72.5693 13.296C72.5693 12.672 72.7093 12.112 72.9893 11.616C73.2773 11.112 73.6693 10.72 74.1653 10.44C74.6693 10.16 75.2373 10.02 75.8693 10.02C76.4693 10.02 77.0133 10.152 77.5013 10.416C77.9973 10.672 78.3893 11.044 78.6773 11.532C78.9653 12.012 79.1093 12.576 79.1093 13.224L74.2013 14.184C74.3533 14.552 74.5973 14.832 74.9333 15.024C75.2693 15.216 75.6733 15.312 76.1453 15.312ZM75.8693 11.22C75.3173 11.22 74.8693 11.4 74.5253 11.76C74.1893 12.12 74.0213 12.604 74.0213 13.212V13.224L77.6453 12.528C77.5413 12.136 77.3293 11.82 77.0093 11.58C76.6973 11.34 76.3173 11.22 75.8693 11.22ZM82.5304 16.584C82.0104 16.584 81.5024 16.516 81.0064 16.38C80.5104 16.244 80.1144 16.072 79.8184 15.864L80.3944 14.724C80.6824 14.916 81.0264 15.072 81.4264 15.192C81.8344 15.304 82.2344 15.36 82.6264 15.36C83.5224 15.36 83.9704 15.124 83.9704 14.652C83.9704 14.428 83.8544 14.272 83.6224 14.184C83.3984 14.096 83.0344 14.012 82.5304 13.932C82.0024 13.852 81.5704 13.76 81.2344 13.656C80.9064 13.552 80.6184 13.372 80.3704 13.116C80.1304 12.852 80.0104 12.488 80.0104 12.024C80.0104 11.416 80.2624 10.932 80.7664 10.572C81.2784 10.204 81.9664 10.02 82.8304 10.02C83.2704 10.02 83.7104 10.072 84.1504 10.176C84.5904 10.272 84.9504 10.404 85.2304 10.572L84.6544 11.712C84.1104 11.392 83.4984 11.232 82.8184 11.232C82.3784 11.232 82.0424 11.3 81.8104 11.436C81.5864 11.564 81.4744 11.736 81.4744 11.952C81.4744 12.192 81.5944 12.364 81.8344 12.468C82.0824 12.564 82.4624 12.656 82.9744 12.744C83.4864 12.824 83.9064 12.916 84.2344 13.02C84.5624 13.124 84.8424 13.3 85.0744 13.548C85.3144 13.796 85.4344 14.148 85.4344 14.604C85.4344 15.204 85.1744 15.684 84.6544 16.044C84.1344 16.404 83.4264 16.584 82.5304 16.584Z" fill="white"/>
</svg>
